<?xml version="1.0" encoding="UTF-8"?>
<svg id="Layer_1" data-name="Layer 1" xmlns="http://www.w3.org/2000/svg" viewBox="0 0 1276.8 672.03" fill="#e5e7eb">
  <path d="M132.15,34.31c16.84,76.43,24.61,154.67,22.97,232.92-1.63,77.72-12.28,155.2-32.09,230.38-11.12,42.19-25.84,82.89-40.82,123.81-2.86,7.8,10.04,13.35,13.54,5.71,16.32-35.72,28.44-73.74,38.56-111.63,10.21-38.22,18.06-77.07,23.58-116.24,10.99-78.05,12.86-157.27,5.16-235.72-4.35-44.33-11.66-88.33-22.21-131.61-1.38-5.64-9.92-3.25-8.68,2.39h0Z"/>
  <path d="M34.12,81.13c63.69-5.97,123.31-29.95,184.05-48.25,30-9.04,60.7-16.99,92-19.78,31.59-2.82,63.29-.06,94.17,6.93,34.71,7.86,68.24,20.02,101.64,32.14,7.27,2.64,10.4-8.95,3.19-11.57C449.33,18.88,388.26-2.42,323.66,.22c-63.8,2.61-124.21,26.45-184.45,45.29-34.29,10.73-69.21,20.26-105.09,23.62-7.62,.71-7.7,12.72,0,12h0Z"/>
  <path d="M7.26,605.53c60.87-22.51,122.78,4.16,183.56,12.61,61.92,8.61,122.85-6.48,183.18-18.64,17.53-3.53,35.11-6.77,52.84-9.12s36.45-4.36,54.8-3.04c7.71,.55,7.67-11.45,0-12-31.68-2.27-64.27,3.7-95.31,9.56-30.91,5.83-61.54,13.12-92.59,18.19-30.66,5-61.9,7.52-92.89,4.29-31.63-3.29-62.42-12.72-93.73-18.07-34.55-5.89-69.63-7.7-103.03,4.66-7.18,2.66-4.08,14.26,3.19,11.57h0Z"/>
  <path d="M96.64,346.81c8.12-14.44,24.16-21.38,38.62-27.88,17.57-7.89,36.26-13.7,55.39-8.16,17.26,4.99,32.48,15.19,50.01,19.51,18.42,4.55,37.57,4.05,55.74-1.36,5.6-1.67,3.26-10.29-2.42-8.77-15.33,4.1-31.61,4.87-47.18,1.6-14.75-3.1-27.81-10.27-41.6-16.04s-27.31-8.39-42.05-6.09c-14.79,2.3-28.77,8.72-42.15,15.18-13.03,6.28-25.59,14.11-32.87,27.04-3.11,5.53,5.39,10.5,8.5,4.97h0Z"/>
  <path d="M705.77,28.92c-46.39,77.02-90.88,155.19-133.39,234.42-42.79,79.75-83.58,160.57-122.37,242.34-21.92,46.21-43.2,92.72-63.85,139.52-3.09,7,7.25,13.11,10.36,6.06,36.57-82.86,75.12-164.85,115.69-245.83,40.35-80.55,82.69-160.12,126.99-238.57,25.02-44.32,50.68-88.28,76.94-131.87,3.99-6.63-6.38-12.67-10.36-6.06h0Z"/>
  <path d="M614.83,34.38c11.34,19.79,23,39.4,34.06,59.36,10.29,18.56,18.47,38.15,26.99,57.55,18.25,41.55,35.7,83.45,53.22,125.31,35.02,83.68,69.66,167.52,104.11,251.44,19.25,46.88,39.81,93.19,59.16,140.03,2.91,7.04,14.52,3.95,11.57-3.19-17.34-41.96-35.93-83.4-53.16-125.4-17.41-42.42-34.85-84.83-52.37-127.2-17.28-41.81-34.64-83.6-52.09-125.34-17.47-41.8-34.45-83.88-52.74-125.33-9.81-22.23-19.12-44.85-30.32-66.43-11.81-22.74-25.35-44.62-38.09-66.85-3.84-6.7-14.21-.66-10.36,6.06h0Z"/>
  <path d="M453.29,369.72c3.45-.55,7.03-.71,10.4-1.65s6.62-2.7,9.79-4.2c6.56-3.1,13.03-6.37,19.5-9.64,12.51-6.31,25.04-12.72,38.19-17.63s26.13-8.22,39.83-8.03c14.34,.2,26.91,4.94,39.15,12.13,22.47,13.19,44.72,32.39,71.8,34.4,15.55,1.16,30.91-3.04,45.82-6.85,15.26-3.9,30.44-8.12,45.57-12.52,34.02-9.91,67.77-20.74,101.8-30.63,7.4-2.15,4.25-13.73-3.19-11.57-29.86,8.67-59.51,18.08-89.31,26.95-15.28,4.55-30.61,8.96-46.02,13.06s-30.7,8.99-46.48,9.67c-27.81,1.19-50.65-19.11-73.23-32.47-12.16-7.2-24.58-12.29-38.74-13.75-13.2-1.36-26.67,.68-39.34,4.41-15.13,4.46-29.5,11.27-43.58,18.29-7.28,3.63-14.52,7.36-21.83,10.93-3.45,1.69-6.9,3.47-10.45,4.95-4.08,1.71-8.52,1.88-12.85,2.57-7.61,1.21-4.38,12.78,3.19,11.57h0Z"/>
  <path d="M966.19,18.74c-.09,42.71-3.76,85.28-7.18,127.83-.88,10.9-.88,22.14-3.65,32.73-2.47,9.42-2.54,19.92-3.68,29.61-2.44,20.58-5.22,41.11-8.34,61.6-12.36,80.97-30.09,161.12-53.36,239.66-13.05,44.04-27.85,87.55-44.28,130.44-2.77,7.22,8.83,10.34,11.57,3.19,29.34-76.55,53.36-155.1,71.81-234.99,9.27-40.14,17.15-80.59,23.67-121.26,3.3-20.56,6.24-41.18,8.88-61.83,1.31-10.27,2.53-20.55,3.67-30.84s3.53-20.22,4.33-30.61c3.72-48.45,8.48-96.88,8.57-145.52,.02-7.72-11.98-7.73-12,0h0Z"/>
  <path d="M1004.44,268.16c82.13-40.42,158.72-93.05,221.63-159.89,17.7-18.81,34.21-38.69,49.58-59.44,4.6-6.21-5.81-12.2-10.36-6.06-53.55,72.3-122.53,131.78-199.36,178.2-21.96,13.27-44.53,25.49-67.55,36.82-6.93,3.41-.85,13.76,6.06,10.36h0Z"/>
  <path d="M895.78,306.79c38.09-8.68,74.17-24.11,110.06-39.2,3.01-1.27,5.09-3.96,4.19-7.38-.74-2.82-4.4-5.45-7.38-4.19-35.89,15.09-71.97,30.52-110.06,39.2-7.53,1.72-4.34,13.29,3.19,11.57h0Z"/>
  <path d="M909.36,254.46c31.65,20.74,61.07,44.56,89.77,69.17,6.44,5.52,12.3,11.96,18.95,17.18,3.08,2.42,5.13,4.24,7.31,7.52s4.92,5.82,7.65,8.57c11.87,11.93,23.36,24.24,34.44,36.91,43.93,50.18,81.23,106.02,111.21,165.58,17.1,33.97,31.72,69.1,44.03,105.08,2.49,7.26,14.08,4.14,11.57-3.19-22.07-64.49-51.55-126.43-88.62-183.66-18.54-28.63-38.94-56.08-60.97-82.13-11.03-13.04-22.48-25.72-34.33-38.02-5.46-5.67-11.74-10.91-16.09-17.47-2.21-3.33-4.58-5.42-7.74-7.76-3.4-2.51-6.1-5.76-9.18-8.63-15.63-14.57-32.64-28.02-49.38-41.27s-34.44-26.35-52.58-38.23c-6.48-4.24-12.5,6.14-6.06,10.36h0Z"/>
</svg>