<svg xmlns="http://www.w3.org/2000/svg" height="24" viewBox="0 -960 960 960" width="24" fill="#e5e7eb"><path d="M480-194.218q119.565-105.043 180.87-194.815 61.304-89.771 61.304-166.445 0-103.797-70.432-175.746-70.433-71.95-171.75-71.95-101.318 0-171.742 71.95-70.424 71.949-70.424 175.746 0 76.674 61.304 165.945Q360.435-300.261 480-194.218Zm-.057 116.848q-18.421 0-36.182-6-17.76-6-32.957-19.239-72.478-64.761-126.337-124.261-53.858-59.5-89.217-115.119-35.359-55.62-52.978-108.837-17.62-53.217-17.62-104.652 0-152.52 104.495-256.695Q333.643-916.348 480-916.348q146.357 0 250.853 104.175 104.495 104.175 104.495 256.695 0 51.435-17.62 104.652-17.619 53.217-52.978 108.837-35.359 55.619-89.217 115.119-53.859 59.5-126.337 124.261-15.229 13.24-33.03 19.24-17.802 6-36.223 6ZM480-560Zm0 90.957q37.478 0 64.217-26.74 26.74-26.739 26.74-64.217 0-37.478-26.74-64.217-26.739-26.74-64.217-26.74-37.478 0-64.217 26.74-26.74 26.739-26.74 64.217 0 37.478 26.74 64.217 26.739 26.74 64.217 26.74Z"/></svg>