<svg xmlns="http://www.w3.org/2000/svg" height="24" viewBox="0 -960 960 960" width="24"><path d="M141.239-212.913q-23.674 0-40.13-16.576-16.457-16.576-16.457-40.011 0-23.674 16.457-40.13 16.456-16.457 40.13-16.457h677.522q23.674 0 40.13 16.457 16.457 16.456 16.457 40.13 0 23.435-16.457 40.011-16.456 16.576-40.13 16.576H141.239Zm0-211.261q-23.674 0-40.13-16.576-16.457-16.576-16.457-40.011 0-23.674 16.457-40.13 16.456-16.457 40.13-16.457h677.522q23.674 0 40.13 16.457 16.457 16.456 16.457 40.13 0 23.435-16.457 40.011-16.456 16.576-40.13 16.576H141.239Zm0-211.5q-23.674 0-40.13-16.456-16.457-16.457-16.457-40.131 0-23.435 16.457-40.011 16.456-16.576 40.13-16.576h677.522q23.674 0 40.13 16.576 16.457 16.576 16.457 40.011 0 23.674-16.457 40.131-16.456 16.456-40.13 16.456H141.239Z"/></svg>