<svg xmlns="http://www.w3.org/2000/svg" height="24" viewBox="0 -960 960 960" width="24" fill="#e5e7eb"><path d="m480-247.065-160.674 96.956q-16.196 9.718-33.272 8.598-17.076-1.119-29.793-10.837-12.957-9.478-19.196-24.934-6.239-15.457-2.239-33.653l42.717-183.674-142.674-123.674Q120.152-530 116.793-546.457q-3.358-16.456 1.642-31.652 5.239-14.956 18.076-25.674 12.837-10.717 31.271-12.717l187.153-16.239 72.717-172.913q7.478-17.957 21.815-26.055 14.337-8.098 30.533-8.098t30.533 8.098q14.337 8.098 21.815 26.055l72.717 172.913L792.218-616.5q18.434 2 31.271 12.717 12.837 10.718 18.076 25.674 5 15.196 1.642 31.652-3.359 16.457-18.076 28.174L682.457-394.609l42.717 183.674q4 18.196-2.239 33.653-6.239 15.456-19.196 24.934-12.717 9.718-29.793 10.837-17.076 1.12-33.272-8.598L480-247.065Z"/></svg>